<svg xmlns="http://www.w3.org/2000/svg" width="70" height="70" viewBox="0 0 70 70">
    <g fill="none" fill-rule="evenodd">
        <path fill="#1565C0" d="M47.794 39.851l8.128 8.034a24.175 24.175 0 0 0 3.803-13.05c0-13.485-11.011-24.417-24.594-24.417-13.583 0-24.595 10.932-24.595 24.417 0 13.485 11.012 24.417 24.595 24.417 4.68 0 9.055-1.298 12.78-3.55l-8.034-8.176a13.77 13.77 0 0 0 7.917-7.675zm15.502 15.324l6.684 6.606v7.932h-8.3l-6.494-6.608a34.992 34.992 0 0 1-20.165 6.348C15.703 69.453.043 53.906.043 34.727.043 15.547 15.703 0 35.02 0 54.34 0 70 15.548 70 34.727a34.404 34.404 0 0 1-6.704 20.448zm-45.67-14.72a17.982 17.982 0 0 1-.968-5.837c0-10.009 8.172-18.123 18.254-18.123s18.255 8.114 18.255 18.123a18 18 0 0 1-.801 5.325l-3.68-3.5c.072-.563.108-1.135.108-1.716 0-7.552-6.166-13.674-13.773-13.674-7.606 0-13.772 6.122-13.772 13.674 0 .692.051 1.372.151 2.036l-3.775 3.693z"/>
        <path fill="#FF8F00" d="M22.209 39.752a13.769 13.769 0 0 0 7.856 7.736L8.305 69.632h-8.3V61.7l22.204-21.948zM35.24 42.54c-4.226 0-7.652-3.401-7.652-7.596 0-4.196 3.426-7.597 7.652-7.597s7.652 3.401 7.652 7.597c0 4.195-3.426 7.596-7.652 7.596z"/>
    </g>
</svg>
