<?xml version="1.0" encoding="utf-8"?>
<!-- Generator: Adobe Illustrator 19.0.0, SVG Export Plug-In . SVG Version: 6.00 Build 0)  -->
<svg version="1.1" id="Layer_1" xmlns="http://www.w3.org/2000/svg" xmlns:xlink="http://www.w3.org/1999/xlink" x="0px" y="0px"
	 viewBox="0 0 80.4 42.8" style="enable-background:new 0 0 80.4 42.8;" xml:space="preserve">
<style type="text/css">
	.st0{clip-path:url(#SVGID_2_);}
	.st1{opacity:0.15;clip-path:url(#SVGID_4_);fill:#757575;}
</style>
<g>
	<defs>
		<path id="SVGID_1_" d="M18.9,22.7c-0.1-0.8-0.2-1.7-0.2-2.5C18.8,9,28.4,0,40.2,0C52,0,61.6,9,61.6,20.2c0,0.9-0.1,1.7-0.2,2.5
			h8.8c5.6,0,10.1,4.5,10.1,10.1c0,5.6-4.5,10.1-10.1,10.1H10.1C4.5,42.8,0,38.3,0,32.8c0-5.6,4.5-10.1,10.1-10.1H18.9z"/>
	</defs>
	<clipPath id="SVGID_2_">
		<use xlink:href="#SVGID_1_"  style="overflow:visible;"/>
	</clipPath>
	<g class="st0">
		<defs>
			<rect id="SVGID_3_" x="-1373.9" y="-802.2" width="1920" height="1180"/>
		</defs>
		<clipPath id="SVGID_4_">
			<use xlink:href="#SVGID_3_"  style="overflow:visible;"/>
		</clipPath>
		<rect x="-5" y="-5" class="st1" width="90.4" height="52.8"/>
	</g>
</g>
</svg>
