<?xml version="1.0" encoding="UTF-8"?>
<svg width="512px" height="512px" viewBox="0 0 512 512" version="1.1" xmlns="http://www.w3.org/2000/svg" xmlns:xlink="http://www.w3.org/1999/xlink">
    <!-- Generator: Sketch 44.1 (41455) - http://www.bohemiancoding.com/sketch -->
    <title>logo white</title>
    <desc>Created with Sketch.</desc>
    <defs></defs>
    <g id="logo" stroke="none" stroke-width="1" fill="none" fill-rule="evenodd">
        <g id="logo-white" fill="#FFFFFF">
            <g transform="translate(57.000000, 56.000000)" id="Combined-Shape">
                <path d="M126.271332,227.521167 C134.29737,247.807601 150.561972,263.940182 170.942297,271.798572 L47.2168699,398.539402 L0.0244962033,398.539402 L0.0244962033,353.141984 L126.271332,227.521167 Z M200.364486,243.478261 C176.337519,243.478261 156.859813,224.01238 156.859813,200 C156.859813,175.98762 176.337519,156.521739 200.364486,156.521739 C224.391453,156.521739 243.869159,175.98762 243.869159,200 C243.869159,224.01238 224.391453,243.478261 200.364486,243.478261 Z"></path>
                <path d="M72.7733653,258.01489 L29.009616,301.778639 C10.7545701,271.736256 0.242990654,236.47382 0.242990654,198.757764 C0.242990654,88.986882 89.2839301,0 199.121495,0 C308.959061,0 398,88.986882 398,198.757764 C398,242.510645 383.85416,282.961593 359.883886,315.791828 L397.886696,353.606194 L397.886696,399.003613 L350.694322,399.003613 L313.773645,361.183114 C281.370965,384.069393 241.817441,397.515528 199.121495,397.515528 C161.262071,397.515528 125.873455,386.943162 95.7503519,368.591436 L139.033265,325.308523 C157.394618,334.165858 177.988683,339.130435 199.742991,339.130435 C226.354078,339.130435 251.229028,331.701665 272.40477,318.806008 L226.728565,272.016595 C247.185144,264.313227 263.564613,248.297401 271.744295,228.089294 L317.953722,274.069583 C331.649898,252.464664 339.579439,226.847233 339.579439,199.378882 C339.579439,122.196231 276.972529,59.6273292 199.742991,59.6273292 C122.513453,59.6273292 59.9065421,122.196231 59.9065421,199.378882 C59.9065421,220.319133 64.5149048,240.183697 72.7733653,258.01489 L72.7733653,258.01489 Z M100.211918,231.547174 C96.6450178,221.063533 94.7102804,209.825893 94.7102804,198.136646 C94.7102804,140.849967 141.178521,94.4099379 198.5,94.4099379 C255.821479,94.4099379 302.28972,140.849967 302.28972,198.136646 C302.28972,208.742676 300.696944,218.976918 297.737404,228.6135 L276.819276,208.578607 C277.222281,205.361616 277.429907,202.083922 277.429907,198.757764 C277.429907,155.535479 242.370037,120.496894 199.121495,120.496894 C155.872954,120.496894 120.813084,155.535479 120.813084,198.757764 C120.813084,202.718806 121.107536,206.611117 121.675757,210.414028 L100.211918,231.547174 Z"></path>
            </g>
        </g>
    </g>
</svg>