<?xml version="1.0" encoding="UTF-8" standalone="no"?>
<svg
   xmlns:dc="http://purl.org/dc/elements/1.1/"
   xmlns:cc="http://creativecommons.org/ns#"
   xmlns:rdf="http://www.w3.org/1999/02/22-rdf-syntax-ns#"
   xmlns:svg="http://www.w3.org/2000/svg"
   xmlns="http://www.w3.org/2000/svg"
   xmlns:sodipodi="http://sodipodi.sourceforge.net/DTD/sodipodi-0.dtd"
   xmlns:inkscape="http://www.inkscape.org/namespaces/inkscape"
   viewBox="0 0 113.76 113.76"
   height="113.76"
   width="113.76"
   xml:space="preserve"
   id="svg2"
   version="1.1"
   sodipodi:docname="Stop.svg"
   inkscape:version="0.92.2 (5c3e80d, 2017-08-06)"><sodipodi:namedview
     pagecolor="#ffffff"
     bordercolor="#666666"
     borderopacity="1"
     objecttolerance="10"
     gridtolerance="10"
     guidetolerance="10"
     inkscape:pageopacity="0"
     inkscape:pageshadow="2"
     inkscape:window-width="721"
     inkscape:window-height="597"
     id="namedview16"
     showgrid="false"
     inkscape:zoom="0.13"
     inkscape:cx="56.880002"
     inkscape:cy="106.35233"
     inkscape:window-x="959"
     inkscape:window-y="238"
     inkscape:window-maximized="0"
     inkscape:current-layer="svg2" /><metadata
     id="metadata8"><rdf:RDF><cc:Work
         rdf:about=""><dc:format>image/svg+xml</dc:format><dc:type
           rdf:resource="http://purl.org/dc/dcmitype/StillImage" /><dc:title /></cc:Work></rdf:RDF></metadata><defs
     id="defs6" /><path
     id="path14"
     style="fill:#ffffff;fill-opacity:1;fill-rule:nonzero;stroke:none;stroke-width:0.13333333"
     d="M 33.400532,113.57094 H 80.363598 L 113.57453,80.360001 V 33.396402 L 80.363598,0.18546951 H 33.400532 L 0.18906266,33.396402 V 80.360001 L 33.400532,113.57094"
     inkscape:connector-curvature="0" /><path
     id="path16"
     style="fill:none;stroke:#231f20;stroke-width:0.37799999;stroke-linecap:butt;stroke-linejoin:round;stroke-miterlimit:4;stroke-dasharray:none;stroke-opacity:1"
     d="M 33.400532,113.57094 H 80.363598 L 113.57453,80.360001 V 33.396402 L 80.363598,0.18546951 H 33.400532 L 0.18906266,33.396402 V 80.360001 L 33.400532,113.57094"
     inkscape:connector-curvature="0" /><path
     id="path18"
     style="fill:#ee2c30;fill-opacity:1;fill-rule:nonzero;stroke:none;stroke-width:0.13333333"
     d="M 35.221866,109.16885 H 78.541731 L 109.17186,78.538668 V 35.218269 L 78.541731,4.5881361 H 35.221866 L 4.5911466,35.218269 V 78.538668 L 35.221866,109.16885"
     inkscape:connector-curvature="0" /><path
     id="path20"
     style="fill:#ffffff;fill-opacity:1;fill-rule:nonzero;stroke:none;stroke-width:0.31598693"
     d="m 35.367621,89.980633 c 2.186024,1.002963 4.84363,1.700286 8.003708,2.287947 3.157238,0.508652 6.672065,0.699573 10.544839,0.699573 8.131547,0 14.675773,-1.781546 19.406127,-5.387375 4.729997,-3.590365 7.043861,-8.582404 7.043861,-14.979208 v 0 c 0,-2.996235 -0.485784,-5.598259 -1.585545,-7.693036 -1.084845,-2.095622 -2.657961,-3.997792 -4.48746,-5.597136 -1.814231,-1.599059 -3.99919,-3.097176 -6.544581,-4.393407 -2.543972,-1.305793 -5.215428,-2.602025 -8.002289,-3.897976 -2.058543,-1.000712 -3.885203,-1.903574 -5.344685,-2.804187 -1.571339,-0.890774 -2.785087,-1.689321 -3.62988,-2.589934 -0.971213,-0.800513 -1.699178,-1.701129 -2.070972,-2.704091 -0.356526,-0.899488 -0.599418,-1.993554 -0.599418,-3.198404 0,-2.692 1.084845,-4.989788 3.272293,-6.690073 2.186024,-1.70141 5.215779,-2.602022 9.217455,-2.602022 3.027979,0 5.943745,0.303109 8.486651,0.900612 2.55782,0.698729 4.729998,1.397176 6.674554,2.196848 v 0 l 0.370371,-9.586491 v 0 c -1.586607,-0.505278 -3.886621,-1.101658 -6.673484,-1.599061 -2.914347,-0.495436 -6.186281,-0.798546 -9.831788,-0.798546 -3.385925,0 -6.543163,0.393088 -9.573984,1.092939 -3.0294,0.79939 -5.701206,2.004239 -8.002286,3.501512 -2.315286,1.600186 -4.129517,3.492797 -5.458319,5.790304 -1.344072,2.29779 -2.058541,4.899812 -2.058541,7.895203 0,3.097179 0.471577,5.59826 1.571693,7.692756 1.087332,2.106585 2.545391,3.999197 4.361044,5.497314 1.826657,1.599059 3.885203,2.996236 6.429172,4.201084 2.428916,1.295107 5.100725,2.591058 7.887234,3.998074 2.301433,1.09294 4.244567,2.196565 5.817683,3.097177 1.584124,0.991997 2.785444,1.993556 3.7563,2.895294 0.857224,0.900612 1.586964,1.892609 1.94491,2.894167 0.370373,1.103904 0.485427,2.197969 0.485427,3.502637 0,3.189685 -1.330222,5.688516 -3.886622,7.590685 -2.542906,1.895987 -5.931318,2.897542 -10.060832,2.897542 -3.401549,0 -6.544581,-0.497401 -9.575402,-1.499241 -3.043604,-0.900615 -5.458317,-1.903295 -7.401806,-2.894167 v 0 l -0.485428,10.282687 v 0"
     inkscape:connector-curvature="0" /><path
     id="path30"
     style="fill:#ee2c30;fill-opacity:1;fill-rule:nonzero;stroke:none;stroke-width:0.13333333"
     d="M 84.860931,56.004801 V 44.398535 h 2.231733 v 0 c 1.9584,0 3.417734,0.470267 4.421867,1.3724 0.954267,0.9464 1.454267,2.463067 1.454267,4.502667 v 0 c 0,1.8484 -0.4568,3.2208 -1.363067,4.214533 -0.913067,0.993733 -2.4156,1.516666 -4.556267,1.516666 h -2.188533 v 0"
     inkscape:connector-curvature="0" /></svg>