<?xml version="1.0" encoding="UTF-8"?>
<svg width="40px" height="40px" viewBox="0 0 40 40" version="1.1" xmlns="http://www.w3.org/2000/svg" xmlns:xlink="http://www.w3.org/1999/xlink">
    <!-- Generator: Sketch 44.1 (41455) - http://www.bohemiancoding.com/sketch -->
    <title>Equipment E</title>
    <desc>Created with Sketch.</desc>
    <defs>
        <path d="M15,30 C6.716,30 0,23.284 0,15 C0,6.716 6.716,0 15,0 L30,0 L30,15 C30,23.284 23.284,30 15,30 Z" id="path-1"></path>
        <filter x="-15.0%" y="-15.0%" width="130.0%" height="130.0%" filterUnits="objectBoundingBox" id="filter-2">
            <feMorphology radius="0.5" operator="dilate" in="SourceAlpha" result="shadowSpreadOuter1"></feMorphology>
            <feOffset dx="0" dy="0" in="shadowSpreadOuter1" result="shadowOffsetOuter1"></feOffset>
            <feGaussianBlur stdDeviation="1" in="shadowOffsetOuter1" result="shadowBlurOuter1"></feGaussianBlur>
            <feColorMatrix values="0 0 0 0 0   0 0 0 0 0   0 0 0 0 0  0 0 0 0.249886775 0" type="matrix" in="shadowBlurOuter1"></feColorMatrix>
        </filter>
    </defs>
    <g id="Export-symbols" stroke="none" stroke-width="1" fill="none" fill-rule="evenodd">
        <g id="Equipment-E">
            <g id="Direction" transform="translate(18.213203, 20.213203) rotate(45.000000) translate(-18.213203, -20.213203) translate(3.213203, 5.213203)">
                <g id="Outer-circle">
                    <use fill="black" fill-opacity="1" filter="url(#filter-2)" xlink:href="#path-1"></use>
                    <use fill="#FFFFFF" fill-rule="evenodd" xlink:href="#path-1"></use>
                </g>
            </g>
            <g id="Equipment-symbol" transform="translate(3.000000, 5.000000)">
                <g id="Symbol" transform="translate(3.000000, 3.000000)">
                    <path d="M12,24 C5.3728,24 0,18.6272 0,12 C0,5.3728 5.3728,0 12,0 C18.6272,0 24,5.3728 24,12 C24,18.6272 18.6272,24 12,24 Z" id="Outer-circle" fill="#8B8B8B"></path>
                    <g id="Equipment" transform="translate(6.000000, 5.000000)" fill="#FEFEFE">
                        <path d="M0,11.0361296 L0,3.14788931 C0,1.88872729 0.537986832,1.04929853 1.61397664,0.629577862 C2.68996644,0.209857189 4.24279207,0 6.27250011,0 C8.30220814,0 9.85503377,0.209857189 10.9310236,0.629577862 C12.0070134,1.04929853 12.5450002,1.88872729 12.5450002,3.14788931 L12.5450002,11.0361296 C12.5450002,11.7274342 12.2760068,12.3199722 11.7380119,12.8137612 L11.7380119,14.2210529 C11.7380119,14.4185685 11.6646501,14.5975643 11.5179242,14.7580458 C11.3711983,14.9185272 11.1877937,14.9987667 10.9677049,14.9987667 L10.1973978,14.9987667 C9.97730901,14.9987667 9.78779092,14.9185272 9.62883788,14.7580458 C9.46988484,14.5975643 9.39040952,14.4185685 9.39040952,14.2210529 L9.39040952,13.4063051 L3.1545907,13.4063051 L3.1545907,14.2210529 C3.1545907,14.4185685 3.07511537,14.5975643 2.91616233,14.7580458 C2.75720929,14.9185272 2.5676912,14.9987667 2.34760238,14.9987667 L1.57729535,14.9987667 C1.35720652,14.9987667 1.17380192,14.9185272 1.02707604,14.7580458 C0.880350158,14.5975643 0.806988318,14.4185685 0.806988318,14.2210529 L0.806988318,12.8137612 C0.268993416,12.3199722 0,11.7274342 0,11.0361296 Z M2.75109654,11.8508774 C3.06900262,11.8508774 3.34410952,11.7336043 3.5764255,11.4990545 C3.80874148,11.2645047 3.92489773,10.9867525 3.92489773,10.6657897 C3.92489773,10.3448268 3.81485497,10.0670746 3.59476614,9.83252484 C3.37467732,9.59797505 3.09345693,9.48070192 2.75109654,9.48070192 C2.40873615,9.48070192 2.12751576,9.59797505 1.90742693,9.83252484 C1.68733811,10.0670746 1.57729535,10.3448268 1.57729535,10.6657897 C1.57729535,10.9867525 1.6934516,11.2645047 1.92576758,11.4990545 C2.15808356,11.7336043 2.43319046,11.8508774 2.75109654,11.8508774 Z M9.79390367,11.8508774 C10.1118098,11.8508774 10.3869167,11.7336043 10.6192326,11.4990545 C10.8515486,11.2645047 10.9677049,10.9867525 10.9677049,10.6657897 C10.9677049,10.3448268 10.8576621,10.0670746 10.6375733,9.83252484 C10.4174845,9.59797505 10.1362641,9.48070192 9.79390367,9.48070192 C9.45154328,9.48070192 9.17032289,9.59797505 8.95023407,9.83252484 C8.73014525,10.0670746 8.62010249,10.3448268 8.62010249,10.6657897 C8.62010249,10.9867525 8.73625873,11.2645047 8.96857471,11.4990545 C9.20089069,11.7336043 9.4759976,11.8508774 9.79390367,11.8508774 Z M10.9677049,7.11052644 L10.9677049,3.14788931 L1.57729535,3.14788931 L1.57729535,7.11052644 L10.9677049,7.11052644 Z" id="Icon"></path>
                    </g>
                </g>
            </g>
        </g>
    </g>
</svg>