<?xml version="1.0" encoding="UTF-8"?>
<svg width="40px" height="40px" viewBox="0 0 40 40" version="1.1" xmlns="http://www.w3.org/2000/svg" xmlns:xlink="http://www.w3.org/1999/xlink">
    <!-- Generator: Sketch 44.1 (41455) - http://www.bohemiancoding.com/sketch -->
    <title>Unknown</title>
    <desc>Created with Sketch.</desc>
    <defs>
        <path d="M15,30 C6.716,30 0,23.284 0,15 C0,6.716 6.716,0 15,0 C23.284,0 30,6.716 30,15 C30,23.284 23.284,30 15,30 Z" id="path-1"></path>
        <filter x="-15.0%" y="-15.0%" width="130.0%" height="130.0%" filterUnits="objectBoundingBox" id="filter-2">
            <feMorphology radius="0.5" operator="dilate" in="SourceAlpha" result="shadowSpreadOuter1"></feMorphology>
            <feOffset dx="0" dy="0" in="shadowSpreadOuter1" result="shadowOffsetOuter1"></feOffset>
            <feGaussianBlur stdDeviation="1" in="shadowOffsetOuter1" result="shadowBlurOuter1"></feGaussianBlur>
            <feColorMatrix values="0 0 0 0 0   0 0 0 0 0   0 0 0 0 0  0 0 0 0.249886775 0" type="matrix" in="shadowBlurOuter1"></feColorMatrix>
        </filter>
    </defs>
    <g id="Export-symbols" stroke="none" stroke-width="1" fill="none" fill-rule="evenodd">
        <g id="Unknown">
            <g id="No-direction" transform="translate(5.000000, 5.000000)">
                <g id="Outer-circle">
                    <use fill="black" fill-opacity="1" filter="url(#filter-2)" xlink:href="#path-1"></use>
                    <use fill="#FFFFFF" fill-rule="evenodd" xlink:href="#path-1"></use>
                </g>
            </g>
            <g id="Unknown-symbol" transform="translate(5.000000, 5.000000)">
                <g id="Symbol" transform="translate(3.000000, 3.000000)">
                    <path d="M12,24 C5.3728,24 0,18.6272 0,12 C0,5.3728 5.3728,0 12,0 C18.6272,0 24,5.3728 24,12 C24,18.6272 18.6272,24 12,24 Z" id="Outer-circle" fill="#8B8B8B"></path>
                    <g id="Unknown" transform="translate(7.000000, 4.000000)" fill="#FEFEFE">
                        <path d="M3.81075404,11.4264607 C3.81075404,10.9630601 3.82275684,10.5701829 3.84676279,10.2478173 C3.87076874,9.92545171 3.92735334,9.63499122 4.0165183,9.37642713 C4.10568325,9.11786305 4.23942868,8.87945039 4.4177586,8.661182 C4.59608851,8.44291362 4.84643252,8.20953784 5.16879814,7.96104768 C5.40199879,7.75285322 5.63519595,7.53290915 5.86839661,7.30120887 C6.10159727,7.06950858 6.31250352,6.83109592 6.5011217,6.58596373 C6.68973988,6.34083155 6.84234684,6.09066615 6.95894717,5.83546004 C7.0755475,5.58025393 7.13384679,5.32505165 7.13384679,5.06984553 C7.13384679,4.45869406 6.96580766,4.01209006 6.62972436,3.73002015 C6.29364106,3.44795024 5.80324115,3.30691739 5.15850992,3.30691739 C4.91159158,3.30691739 4.67153568,3.33881768 4.43833502,3.40261921 C4.20513437,3.46642074 3.99765748,3.56883744 3.81589815,3.7098724 C3.63413881,3.85090735 3.4866759,4.03223529 3.37350499,4.25386165 C3.26033409,4.47548801 3.20032011,4.74076407 3.19346127,5.04969778 L0.323049884,5.04969778 C0.329908726,4.36467085 0.460224786,3.7686392 0.714001972,3.26158496 C0.967779158,2.75453071 1.31071616,2.33311115 1.74282326,1.99731363 C2.17493036,1.66151612 2.68247712,1.41135072 3.26547876,1.24680994 C3.8484804,1.08226916 4.47948448,1 5.15850992,1 C5.91984148,1 6.60228611,1.08394812 7.20586428,1.25184688 C7.80944245,1.41974563 8.3187039,1.66991103 8.73366389,2.00235057 C9.14862388,2.33479011 9.46584061,2.7461359 9.68532358,3.23640027 C9.90480655,3.72666464 10.0145464,4.29415393 10.0145464,4.93888516 C10.0145464,5.41571763 9.93224151,5.85056889 9.76762928,6.24345198 C9.60301705,6.63633507 9.39039611,7.00234888 9.12976008,7.34150437 C8.86912406,7.68065986 8.57248355,8.00302063 8.23982967,8.30859637 C7.90717579,8.61417211 7.57281222,8.91134846 7.23672892,9.20013432 C7.03096363,9.40161283 6.86978324,9.57958284 6.75318292,9.7340497 C6.63658259,9.88851655 6.55256302,10.046339 6.5011217,10.2075218 C6.44968038,10.3687046 6.41710136,10.5449957 6.40338368,10.7364003 C6.38966599,10.9278049 6.38280725,11.1578227 6.38280725,11.4264607 L3.81075404,11.4264607 Z M3.38893731,14.4788449 C3.38893731,14.2572185 3.42666038,14.0507061 3.50210765,13.8593015 C3.57755493,13.667897 3.68729477,13.5016797 3.83133047,13.3606447 C3.97536617,13.2196098 4.15026404,13.1104772 4.35602932,13.0332438 C4.56179461,12.9560104 4.79499177,12.9173942 5.0556278,12.9173942 C5.30940498,12.9173942 5.54088746,12.9560104 5.75008216,13.0332438 C5.95927687,13.1104772 6.13588942,13.2196098 6.27992512,13.3606447 C6.42396082,13.5016797 6.53541535,13.667897 6.61429204,13.8593015 C6.69316874,14.0507061 6.73260649,14.2572185 6.73260649,14.4788449 C6.73260649,14.6937553 6.69316874,14.8952308 6.61429204,15.0832774 C6.53541535,15.271324 6.42396082,15.4325044 6.27992512,15.5668234 C6.13588942,15.7011424 5.95927687,15.806917 5.75008216,15.8841504 C5.54088746,15.9613839 5.30940498,16 5.0556278,16 C4.79499177,16 4.56179461,15.9613839 4.35602932,15.8841504 C4.15026404,15.806917 3.97536617,15.7011424 3.83133047,15.5668234 C3.68729477,15.4325044 3.57755493,15.271324 3.50210765,15.0832774 C3.42666038,14.8952308 3.38893731,14.6937553 3.38893731,14.4788449 Z" id="undefined"></path>
                    </g>
                </g>
            </g>
        </g>
    </g>
</svg>